<svg width="82" height="82" viewBox="0 0 82 82" fill="none" xmlns="http://www.w3.org/2000/svg">
<path d="M79.9274 24.8758L79.4654 25.0671L79.4654 25.0671L79.9274 24.8758ZM79.9269 57.1242L79.465 56.9328L79.465 56.9328L79.9269 57.1242ZM57.1241 79.927L57.3154 80.3889L57.3154 80.3889L57.1241 79.927ZM24.876 79.9267L25.0673 79.4648L25.0673 79.4648L24.876 79.9267ZM2.07277 57.1239L1.61083 57.3153L1.61083 57.3153L2.07277 57.1239ZM2.07295 24.8758L1.61101 24.6845L1.61101 24.6845L2.07295 24.8758ZM24.8761 2.07282L25.0675 2.53476L25.0675 2.53476L24.8761 2.07282ZM57.1243 2.07277L56.933 2.53471L56.933 2.53471L57.1243 2.07277ZM39.3219 4.32221L38.9994 4.70426L39.3219 4.32221ZM42.6785 4.3222L43.0011 4.70425L42.6785 4.3222ZM4.32221 42.6781L4.70425 43.0006L4.32221 42.6781ZM4.32223 39.3215L3.94018 39.6441L4.32223 39.3215ZM16.2519 68.1215L16.7501 68.0795L16.2519 68.1215ZM13.8783 65.7481L13.8363 66.2463L13.8783 65.7481ZM68.1216 65.7484L68.1637 66.2466L68.1216 65.7484ZM65.7482 68.1218L65.25 68.0797L65.7482 68.1218ZM77.6777 39.3219L78.0597 39.6445L77.6777 39.3219ZM77.6776 42.6785L78.0597 42.356L77.6776 42.6785ZM42.6782 77.6775L42.3556 78.0596L42.6782 77.6775ZM39.3216 77.6775L38.9991 77.2954L39.3216 77.6775ZM13.8785 16.2517L13.9205 16.7499L13.8785 16.2517ZM68.122 16.2516L68.164 15.7534L68.122 16.2516ZM65.7485 13.8781L66.2467 13.8361L65.7485 13.8781ZM79.506 22.9028C79.3668 22.6643 79.0606 22.5838 78.8221 22.723C78.5836 22.8622 78.5031 23.1684 78.6423 23.4069L79.506 22.9028ZM76.3599 20.5015C76.5587 20.6932 76.8753 20.6874 77.0669 20.4886C77.2586 20.2898 77.2528 19.9732 77.054 19.7816L76.3599 20.5015ZM73.8472 17.4437C73.604 17.3129 73.3009 17.4041 73.1701 17.6473C73.0393 17.8905 73.1305 18.1937 73.3737 18.3244L73.8472 17.4437ZM69.9106 17.0316C70.18 17.0922 70.4475 16.9229 70.508 16.6535C70.5686 16.384 70.3993 16.1165 70.1299 16.056L69.9106 17.0316ZM67.4645 15.562C67.2153 15.443 66.9168 15.5486 66.7979 15.7978C66.6789 16.047 66.7845 16.3455 67.0337 16.4644L67.4645 15.562ZM65.5357 14.9664C65.6546 15.2156 65.9531 15.3212 66.2023 15.2022C66.4515 15.0833 66.5571 14.7848 66.4381 14.5356L65.5357 14.9664ZM65.9441 11.8703C65.8836 11.6008 65.6161 11.4315 65.3466 11.4921C65.0772 11.5526 64.9079 11.8201 64.9685 12.0896L65.9441 11.8703ZM63.6757 8.62645C63.8065 8.86967 64.1096 8.96082 64.3528 8.83004C64.5961 8.69926 64.6872 8.39609 64.5564 8.15287L63.6757 8.62645ZM62.2185 4.94615C62.0269 4.74735 61.7103 4.74155 61.5115 4.93321C61.3127 5.12486 61.3069 5.44139 61.4986 5.64019L62.2185 4.94615ZM58.5933 3.35779C58.8317 3.49698 59.1379 3.41648 59.2771 3.17799C59.4163 2.9395 59.3358 2.63332 59.0973 2.49412L58.5933 3.35779ZM55.4313 0.975604C55.1642 0.905389 54.8908 1.06497 54.8206 1.33203C54.7504 1.5991 54.91 1.87252 55.177 1.94274L55.4313 0.975604ZM51.5087 1.50226C51.7848 1.4972 52.0046 1.26928 51.9995 0.993185C51.9944 0.717089 51.7665 0.497368 51.4904 0.502424L51.5087 1.50226ZM47.5698 1.11676C47.3053 1.19627 47.1554 1.4751 47.2349 1.73955C47.3144 2.004 47.5933 2.15393 47.8577 2.07442L47.5698 1.11676ZM44.4948 3.60906C44.7281 3.46138 44.7975 3.1525 44.6499 2.91917C44.5022 2.68584 44.1933 2.61641 43.96 2.7641L44.4948 3.60906ZM41.7259 4.29947C41.4656 4.39158 41.3293 4.67728 41.4214 4.93761C41.5135 5.19794 41.7992 5.33431 42.0595 5.2422L41.7259 4.29947ZM39.9409 5.2422C40.2013 5.33431 40.487 5.19794 40.5791 4.93761C40.6712 4.67728 40.5348 4.39158 40.2745 4.29947L39.9409 5.2422ZM38.0405 2.76412C37.8071 2.61643 37.4983 2.68586 37.3506 2.91919C37.2029 3.15252 37.2723 3.4614 37.5057 3.60908L38.0405 2.76412ZM34.1427 2.07446C34.4072 2.15396 34.686 2.00404 34.7655 1.73959C34.845 1.47514 34.6951 1.19631 34.4307 1.1168L34.1427 2.07446ZM30.51 0.502474C30.2339 0.497419 30.006 0.71714 30.001 0.993236C29.9959 1.26933 30.2156 1.49725 30.4917 1.50231L30.51 0.502474ZM26.8235 1.94279C27.0905 1.87257 27.2501 1.59915 27.1799 1.33209C27.1097 1.06502 26.8362 0.905441 26.5692 0.975657L26.8235 1.94279ZM22.9032 2.49417C22.6647 2.63337 22.5842 2.93955 22.7234 3.17804C22.8626 3.41653 23.1687 3.49703 23.4072 3.35784L22.9032 2.49417ZM20.5019 5.64024C20.6935 5.44144 20.6878 5.12491 20.4889 4.93326C20.2901 4.7416 19.9736 4.7474 19.782 4.9462L20.5019 5.64024ZM17.4441 8.15292C17.3133 8.39614 17.4044 8.69931 17.6476 8.83009C17.8909 8.96086 18.194 8.86971 18.3248 8.6265L17.4441 8.15292ZM17.032 12.0896C17.0926 11.8202 16.9233 11.5527 16.6538 11.4921C16.3844 11.4316 16.1169 11.6009 16.0564 11.8703L17.032 12.0896ZM15.5623 14.5357C15.4434 14.7849 15.549 15.0833 15.7982 15.2023C16.0474 15.3212 16.3459 15.2156 16.4648 14.9664L15.5623 14.5357ZM14.9667 16.4645C15.2159 16.3456 15.3215 16.0471 15.2026 15.7979C15.0836 15.5487 14.7852 15.4431 14.536 15.562L14.9667 16.4645ZM11.8706 16.056C11.6012 16.1166 11.4318 16.3841 11.4924 16.6535C11.553 16.9229 11.8205 17.0922 12.0899 17.0317L11.8706 16.056ZM8.62671 18.3245C8.86993 18.1937 8.96108 17.8905 8.8303 17.6473C8.69953 17.4041 8.39635 17.3129 8.15314 17.4437L8.62671 18.3245ZM4.94637 19.7816C4.74757 19.9733 4.74177 20.2898 4.93342 20.4886C5.12508 20.6874 5.44161 20.6932 5.64041 20.5016L4.94637 19.7816ZM3.35797 23.4069C3.49717 23.1684 3.41667 22.8622 3.17818 22.723C2.93968 22.5839 2.63351 22.6643 2.49431 22.9028L3.35797 23.4069ZM0.975789 26.5689C0.905573 26.8359 1.06515 27.1093 1.33222 27.1796C1.59928 27.2498 1.87271 27.0902 1.94292 26.8231L0.975789 26.5689ZM1.50243 30.4914C1.49738 30.2153 1.26946 29.9955 0.993365 30.0006C0.717269 30.0057 0.497546 30.2336 0.502601 30.5097L1.50243 30.4914ZM1.1169 34.4303C1.1964 34.6947 1.47523 34.8446 1.73968 34.7651C2.00413 34.6856 2.15406 34.4068 2.07456 34.1424L1.1169 34.4303ZM3.60914 37.5053C3.46146 37.2719 3.15258 37.2025 2.91925 37.3502C2.68592 37.4979 2.61648 37.8067 2.76416 38.0401L3.60914 37.5053ZM4.29948 40.2741C4.39158 40.5344 4.67729 40.6708 4.93762 40.5787C5.19795 40.4866 5.33432 40.2008 5.24221 39.9405L4.29948 40.2741ZM5.2422 42.0591C5.33431 41.7987 5.19794 41.513 4.93761 41.4209C4.67728 41.3288 4.39158 41.4652 4.29947 41.7255L5.2422 42.0591ZM2.7641 43.9595C2.61641 44.1928 2.68584 44.5017 2.91917 44.6494C3.1525 44.7971 3.46138 44.7277 3.60907 44.4943L2.7641 43.9595ZM2.07442 47.8573C2.15393 47.5928 2.004 47.314 1.73955 47.2345C1.4751 47.155 1.19627 47.3049 1.11676 47.5693L2.07442 47.8573ZM0.502424 51.49C0.497368 51.7661 0.717089 51.994 0.993185 51.9991C1.26928 52.0041 1.4972 51.7844 1.50226 51.5083L0.502424 51.49ZM1.94274 55.1766C1.87252 54.9095 1.5991 54.7499 1.33203 54.8202C1.06497 54.8904 0.905388 55.1638 0.975603 55.4309L1.94274 55.1766ZM2.49414 59.0969C2.63333 59.3354 2.93951 59.4159 3.178 59.2767C3.4165 59.1375 3.49699 58.8313 3.3578 58.5928L2.49414 59.0969ZM5.64025 61.4982C5.44144 61.3066 5.12491 61.3124 4.93326 61.5112C4.74161 61.71 4.74741 62.0265 4.94621 62.2182L5.64025 61.4982ZM8.15299 64.5561C8.39621 64.6868 8.69938 64.5957 8.83016 64.3525C8.96093 64.1093 8.86978 63.8061 8.62656 63.6753L8.15299 64.5561ZM12.0897 64.9681C11.8203 64.9075 11.5528 65.0768 11.4923 65.3463C11.4317 65.6157 11.601 65.8832 11.8704 65.9437L12.0897 64.9681ZM14.5358 66.4377C14.7851 66.5567 15.0835 66.4511 15.2025 66.2019C15.3214 65.9526 15.2158 65.6542 14.9666 65.5352L14.5358 66.4377ZM16.4647 67.0333C16.3457 66.7841 16.0473 66.6785 15.7981 66.7975C15.5489 66.9164 15.4433 67.2149 15.5622 67.4641L16.4647 67.0333ZM16.0563 70.1294C16.1168 70.3988 16.3843 70.5681 16.6537 70.5076C16.9232 70.447 17.0925 70.1795 17.0319 69.9101L16.0563 70.1294ZM18.3247 73.3731C18.1939 73.1299 17.8908 73.0388 17.6475 73.1696C17.4043 73.3003 17.3132 73.6035 17.444 73.8467L18.3247 73.3731ZM19.7819 77.0534C19.9735 77.2522 20.29 77.258 20.4889 77.0663C20.6877 76.8747 20.6935 76.5582 20.5018 76.3594L19.7819 77.0534ZM23.4071 78.6417C23.1686 78.5025 22.8624 78.583 22.7232 78.8215C22.584 79.06 22.6645 79.3662 22.903 79.5054L23.4071 78.6417ZM26.569 81.0239C26.8361 81.0941 27.1095 80.9345 27.1797 80.6675C27.2499 80.4004 27.0904 80.127 26.8233 80.0568L26.569 81.0239ZM30.4915 80.4973C30.2154 80.5023 29.9957 80.7302 30.0007 81.0063C30.0058 81.2824 30.2337 81.5021 30.5098 81.4971L30.4915 80.4973ZM34.4304 80.8828C34.6948 80.8033 34.8448 80.5245 34.7653 80.26C34.6858 79.9956 34.4069 79.8456 34.1425 79.9251L34.4304 80.8828ZM37.5054 78.3906C37.272 78.5383 37.2026 78.8471 37.3503 79.0805C37.498 79.3138 37.8068 79.3832 38.0402 79.2355L37.5054 78.3906ZM40.2742 77.7002C40.5345 77.6081 40.6709 77.3224 40.5788 77.0621C40.4867 76.8018 40.201 76.6654 39.9406 76.7575L40.2742 77.7002ZM42.0592 76.7575C41.7989 76.6654 41.5131 76.8018 41.421 77.0621C41.3289 77.3224 41.4653 77.6081 41.7256 77.7003L42.0592 76.7575ZM43.9596 79.2356C44.193 79.3833 44.5018 79.3139 44.6495 79.0806C44.7972 78.8472 44.7278 78.5384 44.4944 78.3907L43.9596 79.2356ZM47.8574 79.9253C47.5929 79.8458 47.3141 79.9958 47.2346 80.2602C47.1551 80.5247 47.305 80.8035 47.5695 80.883L47.8574 79.9253ZM51.4901 81.4973C51.7662 81.5024 51.9941 81.2827 51.9992 81.0066C52.0042 80.7305 51.7845 80.5026 51.5084 80.4975L51.4901 81.4973ZM55.1767 80.057C54.9097 80.1273 54.7501 80.4007 54.8203 80.6677C54.8905 80.9348 55.1639 81.0944 55.431 81.0242L55.1767 80.057ZM59.097 79.5057C59.3355 79.3665 59.416 79.0603 59.2768 78.8218C59.1376 78.5833 58.8314 78.5028 58.593 78.642L59.097 79.5057ZM61.4983 76.3596C61.3066 76.5584 61.3124 76.8749 61.5112 77.0666C61.71 77.2583 62.0265 77.2525 62.2182 77.0537L61.4983 76.3596ZM64.5561 73.847C64.6869 73.6038 64.5957 73.3006 64.3525 73.1698C64.1093 73.039 63.8061 73.1302 63.6754 73.3734L64.5561 73.847ZM64.9682 69.9103C64.9076 70.1797 65.0769 70.4472 65.3463 70.5078C65.6157 70.5684 65.8833 70.3991 65.9438 70.1296L64.9682 69.9103ZM66.4378 67.4643C66.5568 67.2151 66.4512 66.9166 66.202 66.7977C65.9528 66.6787 65.6543 66.7843 65.5354 67.0336L66.4378 67.4643ZM67.0334 65.5355C66.7842 65.6545 66.6786 65.9529 66.7976 66.2021C66.9165 66.4513 67.215 66.5569 67.4642 66.438L67.0334 65.5355ZM70.1295 65.944C70.3989 65.8834 70.5682 65.6159 70.5077 65.3465C70.4471 65.0771 70.1796 64.9077 69.9102 64.9683L70.1295 65.944ZM73.3733 63.6755C73.1301 63.8063 73.0389 64.1095 73.1697 64.3527C73.3005 64.5959 73.6036 64.687 73.8469 64.5563L73.3733 63.6755ZM77.0535 62.2184C77.2523 62.0267 77.2581 61.7102 77.0665 61.5114C76.8748 61.3126 76.5583 61.3068 76.3595 61.4984L77.0535 62.2184ZM78.6419 58.5931C78.5027 58.8316 78.5832 59.1378 78.8217 59.277C79.0602 59.4162 79.3664 59.3357 79.5056 59.0972L78.6419 58.5931ZM81.0241 55.4312C81.0943 55.1641 80.9347 54.8907 80.6676 54.8205C80.4006 54.7503 80.1271 54.9098 80.0569 55.1769L81.0241 55.4312ZM80.4974 51.5087C80.5025 51.7848 80.7304 52.0045 81.0065 51.9994C81.2826 51.9944 81.5023 51.7665 81.4972 51.4904L80.4974 51.5087ZM80.8829 47.5698C80.8034 47.3053 80.5246 47.1554 80.2602 47.2349C79.9957 47.3144 79.8458 47.5932 79.9253 47.8577L80.8829 47.5698ZM78.3907 44.4948C78.5384 44.7281 78.8473 44.7976 79.0806 44.6499C79.3139 44.5022 79.3834 44.1933 79.2357 43.96L78.3907 44.4948ZM77.7004 41.726C77.6083 41.4656 77.3226 41.3293 77.0622 41.4214C76.8019 41.5135 76.6655 41.7992 76.7576 42.0595L77.7004 41.726ZM76.7577 39.9409C76.6656 40.2012 76.8019 40.4869 77.0622 40.579C77.3226 40.6712 77.6083 40.5348 77.7004 40.2745L76.7577 39.9409ZM79.2359 38.0404C79.3835 37.8071 79.3141 37.4982 79.0808 37.3506C78.8475 37.2029 78.5386 37.2723 78.3909 37.5056L79.2359 38.0404ZM79.9256 34.1426C79.8461 34.4071 79.9961 34.6859 80.2605 34.7654C80.525 34.8449 80.8038 34.695 80.8833 34.4306L79.9256 34.1426ZM81.4977 30.5098C81.5028 30.2337 81.283 30.0058 81.0069 30.0008C80.7308 29.9957 80.5029 30.2154 80.4979 30.4915L81.4977 30.5098ZM80.0574 26.8231C80.1276 27.0902 80.401 27.2498 80.6681 27.1796C80.9352 27.1094 81.0947 26.8359 81.0245 26.5689L80.0574 26.8231ZM80.3893 24.6844C80.1318 24.0629 79.8361 23.4685 79.506 22.9028L78.6423 23.4069C78.9498 23.9336 79.2253 24.4875 79.4654 25.0671L80.3893 24.6844ZM77.054 19.7816C76.0907 18.853 75.0097 18.0687 73.8472 17.4437L73.3737 18.3244C74.4567 18.9068 75.4633 19.6372 76.3599 20.5015L77.054 19.7816ZM70.1299 16.056C69.4845 15.9109 68.8277 15.8094 68.164 15.7534L68.0799 16.7498C68.6978 16.802 69.3094 16.8965 69.9106 17.0316L70.1299 16.056ZM68.164 15.7534C67.9195 15.7327 67.6834 15.6665 67.4645 15.562L67.0337 16.4644C67.3566 16.6186 67.7098 16.7186 68.0799 16.7498L68.164 15.7534ZM66.4381 14.5356C66.3337 14.3167 66.2674 14.0806 66.2467 13.8361L65.2503 13.9202C65.2815 14.2903 65.3816 14.6435 65.5357 14.9664L66.4381 14.5356ZM66.2467 13.8361C66.1907 13.1724 66.0892 12.5157 65.9441 11.8703L64.9685 12.0896C65.1036 12.6907 65.1981 13.3023 65.2503 13.9202L66.2467 13.8361ZM64.5564 8.15287C63.9314 6.99039 63.1471 5.90938 62.2185 4.94615L61.4986 5.64019C62.363 6.53681 63.0934 7.54347 63.6757 8.62645L64.5564 8.15287ZM59.0973 2.49412C58.5317 2.16398 57.9372 1.86828 57.3157 1.61083L56.933 2.53471C57.5126 2.77481 58.0665 3.05037 58.5933 3.35779L59.0973 2.49412ZM57.3157 1.61083C56.6941 1.35338 56.0647 1.14214 55.4313 0.975604L55.177 1.94274C55.7668 2.09781 56.3534 2.29461 56.933 2.53471L57.3157 1.61083ZM51.4904 0.502424C50.1527 0.526922 48.8338 0.736755 47.5698 1.11676L47.8577 2.07442C49.0353 1.7204 50.2635 1.52506 51.5087 1.50226L51.4904 0.502424ZM43.96 2.7641C43.401 3.11788 42.8648 3.51052 42.356 3.94016L43.0011 4.70425C43.4748 4.30424 43.9742 3.93859 44.4948 3.60906L43.96 2.7641ZM42.356 3.94016C42.1684 4.09847 41.9546 4.21856 41.7259 4.29947L42.0595 5.2422C42.3968 5.12285 42.7173 4.94386 43.0011 4.70425L42.356 3.94016ZM40.2745 4.29947C40.0458 4.21857 39.832 4.09847 39.6445 3.94016L38.9994 4.70426C39.2832 4.94387 39.6036 5.12286 39.9409 5.2422L40.2745 4.29947ZM39.6445 3.94016C39.1356 3.51053 38.5994 3.11789 38.0405 2.76412L37.5057 3.60908C38.0263 3.9386 38.5256 4.30425 38.9994 4.70426L39.6445 3.94016ZM34.4307 1.1168C33.1667 0.736799 31.8477 0.52697 30.51 0.502474L30.4917 1.50231C31.7369 1.52511 32.9652 1.72044 34.1427 2.07446L34.4307 1.1168ZM26.5692 0.975657C25.9358 1.14219 25.3063 1.35343 24.6848 1.61088L25.0675 2.53476C25.6471 2.29467 26.2336 2.09786 26.8235 1.94279L26.5692 0.975657ZM24.6848 1.61088C24.0633 1.86833 23.4688 2.16403 22.9032 2.49417L23.4072 3.35784C23.934 3.05042 24.4878 2.77486 25.0675 2.53476L24.6848 1.61088ZM19.782 4.9462C18.8534 5.90943 18.0691 6.99044 17.4441 8.15292L18.3248 8.6265C18.9071 7.54351 19.6375 6.53686 20.5019 5.64024L19.782 4.9462ZM16.0564 11.8703C15.9113 12.5157 15.8098 13.1725 15.7538 13.8361L16.7502 13.9202C16.8024 13.3024 16.8969 12.6908 17.032 12.0896L16.0564 11.8703ZM15.7538 13.8361C15.7331 14.0807 15.6668 14.3168 15.5623 14.5357L16.4648 14.9664C16.6189 14.6435 16.719 14.2904 16.7502 13.9202L15.7538 13.8361ZM14.536 15.562C14.3171 15.6665 14.0809 15.7328 13.8364 15.7534L13.9205 16.7499C14.2906 16.7186 14.6438 16.6186 14.9667 16.4645L14.536 15.562ZM13.8364 15.7534C13.1728 15.8095 12.516 15.911 11.8706 16.056L12.0899 17.0317C12.691 16.8966 13.3027 16.8021 13.9205 16.7499L13.8364 15.7534ZM8.15314 17.4437C6.99064 18.0688 5.90961 18.853 4.94637 19.7816L5.64041 20.5016C6.53704 19.6372 7.54371 18.9068 8.62671 18.3245L8.15314 17.4437ZM2.49431 22.9028C2.16416 23.4685 1.86846 24.063 1.61101 24.6845L2.53489 25.0672C2.77499 24.4875 3.05055 23.9336 3.35797 23.4069L2.49431 22.9028ZM1.61101 24.6845C1.35356 25.306 1.14233 25.9354 0.975789 26.5689L1.94292 26.8231C2.09799 26.2333 2.29479 25.6468 2.53489 25.0672L1.61101 24.6845ZM0.502601 30.5097C0.52709 31.8474 0.736908 33.1663 1.1169 34.4303L2.07456 34.1424C1.72055 32.9648 1.52523 31.7366 1.50243 30.4914L0.502601 30.5097ZM2.76416 38.0401C3.11793 38.599 3.51056 39.1352 3.94018 39.6441L4.70428 38.999C4.30429 38.5252 3.93865 38.0259 3.60914 37.5053L2.76416 38.0401ZM3.94018 39.6441C4.09849 39.8316 4.21858 40.0454 4.29948 40.2741L5.24221 39.9405C5.12287 39.6032 4.94389 39.2828 4.70428 38.999L3.94018 39.6441ZM4.29947 41.7255C4.21856 41.9542 4.09847 42.168 3.94016 42.3555L4.70425 43.0006C4.94386 42.7168 5.12285 42.3964 5.2422 42.0591L4.29947 41.7255ZM3.94016 42.3555C3.51052 42.8644 3.11788 43.4006 2.7641 43.9595L3.60907 44.4943C3.93859 43.9737 4.30424 43.4744 4.70425 43.0006L3.94016 42.3555ZM1.11676 47.5693C0.736755 48.8333 0.526922 50.1523 0.502424 51.49L1.50226 51.5083C1.52506 50.2631 1.7204 49.0348 2.07442 47.8573L1.11676 47.5693ZM0.975603 55.4309C1.14214 56.0643 1.35338 56.6937 1.61083 57.3153L2.53471 56.9326C2.29461 56.3529 2.09781 55.7664 1.94274 55.1766L0.975603 55.4309ZM1.61083 57.3153C1.86828 57.9368 2.16399 58.5312 2.49414 59.0969L3.3578 58.5928C3.05038 58.0661 2.77481 57.5122 2.53471 56.9326L1.61083 57.3153ZM4.94621 62.2182C5.90945 63.1467 6.99049 63.931 8.15299 64.5561L8.62656 63.6753C7.54356 63.093 6.53689 62.3626 5.64025 61.4982L4.94621 62.2182ZM11.8704 65.9437C12.5158 66.0888 13.1726 66.1903 13.8363 66.2463L13.9204 65.2499C13.3025 65.1977 12.6909 65.1032 12.0897 64.9681L11.8704 65.9437ZM13.8363 66.2463C14.0808 66.267 14.3169 66.3332 14.5358 66.4377L14.9666 65.5352C14.6437 65.3811 14.2905 65.2811 13.9204 65.2499L13.8363 66.2463ZM15.5622 67.4641C15.6667 67.683 15.733 67.9191 15.7536 68.1636L16.7501 68.0795C16.7188 67.7094 16.6188 67.3562 16.4647 67.0333L15.5622 67.4641ZM15.7536 68.1636C15.8097 68.8272 15.9112 69.484 16.0563 70.1294L17.0319 69.9101C16.8968 69.3089 16.8023 68.6973 16.7501 68.0795L15.7536 68.1636ZM17.444 73.8467C18.069 75.0092 18.8533 76.0902 19.7819 77.0534L20.5018 76.3594C19.6374 75.4627 18.907 74.4561 18.3247 73.3731L17.444 73.8467ZM22.903 79.5054C23.4687 79.8355 24.0631 80.1312 24.6847 80.3887L25.0673 79.4648C24.4877 79.2247 23.9338 78.9491 23.4071 78.6417L22.903 79.5054ZM24.6847 80.3887C25.3062 80.6461 25.9356 80.8574 26.569 81.0239L26.8233 80.0568C26.2335 79.9017 25.647 79.7049 25.0673 79.4648L24.6847 80.3887ZM30.5098 81.4971C31.8475 81.4726 33.1664 81.2628 34.4304 80.8828L34.1425 79.9251C32.9649 80.2791 31.7367 80.4745 30.4915 80.4973L30.5098 81.4971ZM38.0402 79.2355C38.5991 78.8818 39.1353 78.4892 39.6442 78.0595L38.9991 77.2954C38.5253 77.6954 38.026 78.0611 37.5054 78.3906L38.0402 79.2355ZM39.6442 78.0595C39.8317 77.9012 40.0455 77.7811 40.2742 77.7002L39.9406 76.7575C39.6033 76.8768 39.2829 77.0558 38.9991 77.2954L39.6442 78.0595ZM41.7256 77.7003C41.9543 77.7812 42.1681 77.9013 42.3556 78.0596L43.0007 77.2955C42.7169 77.0559 42.3965 76.8769 42.0592 76.7575L41.7256 77.7003ZM42.3556 78.0596C42.8645 78.4892 43.4007 78.8819 43.9596 79.2356L44.4944 78.3907C43.9738 78.0611 43.4745 77.6955 43.0007 77.2955L42.3556 78.0596ZM47.5695 80.883C48.8334 81.263 50.1524 81.4728 51.4901 81.4973L51.5084 80.4975C50.2632 80.4747 49.0349 80.2794 47.8574 79.9253L47.5695 80.883ZM55.431 81.0242C56.0644 80.8576 56.6939 80.6464 57.3154 80.3889L56.9327 79.4651C56.3531 79.7052 55.7666 79.902 55.1767 80.057L55.431 81.0242ZM57.3154 80.3889C57.9369 80.1315 58.5314 79.8358 59.097 79.5057L58.593 78.642C58.0662 78.9494 57.5124 79.225 56.9327 79.4651L57.3154 80.3889ZM62.2182 77.0537C63.1468 76.0904 63.931 75.0094 64.5561 73.847L63.6754 73.3734C63.093 74.4564 62.3626 75.463 61.4983 76.3596L62.2182 77.0537ZM65.9438 70.1296C66.0889 69.4843 66.1904 68.8275 66.2464 68.1638L65.25 68.0797C65.1978 68.6976 65.1033 69.3092 64.9682 69.9103L65.9438 70.1296ZM66.2464 68.1638C66.2671 67.9193 66.3334 67.6832 66.4378 67.4643L65.5354 67.0336C65.3813 67.3564 65.2812 67.7096 65.25 68.0797L66.2464 68.1638ZM67.4642 66.438C67.6831 66.3335 67.9192 66.2672 68.1637 66.2466L68.0796 65.2501C67.7095 65.2814 67.3563 65.3814 67.0334 65.5355L67.4642 66.438ZM68.1637 66.2466C68.8273 66.1905 69.4841 66.089 70.1295 65.944L69.9102 64.9683C69.3091 65.1034 68.6974 65.198 68.0796 65.2501L68.1637 66.2466ZM73.8469 64.5563C75.0093 63.9312 76.0903 63.1469 77.0535 62.2184L76.3595 61.4984C75.4629 62.3628 74.4563 63.0932 73.3733 63.6755L73.8469 64.5563ZM79.5056 59.0972C79.8357 58.5315 80.1314 57.9371 80.3888 57.3155L79.465 56.9328C79.2249 57.5125 78.9493 58.0664 78.6419 58.5931L79.5056 59.0972ZM80.3888 57.3155C80.6463 56.694 80.8575 56.0646 81.0241 55.4312L80.0569 55.1769C79.9019 55.7667 79.705 56.3532 79.465 56.9328L80.3888 57.3155ZM81.4972 51.4904C81.4728 50.1527 81.2629 48.8337 80.8829 47.5698L79.9253 47.8577C80.2793 49.0352 80.4746 50.2635 80.4974 51.5087L81.4972 51.4904ZM79.2357 43.96C78.8819 43.401 78.4893 42.8649 78.0597 42.356L77.2956 43.0011C77.6956 43.4749 78.0612 43.9742 78.3907 44.4948L79.2357 43.96ZM78.0597 42.356C77.9014 42.1685 77.7813 41.9546 77.7004 41.726L76.7576 42.0595C76.877 42.3968 77.056 42.7173 77.2956 43.0011L78.0597 42.356ZM77.7004 40.2745C77.7813 40.0458 77.9014 39.832 78.0597 39.6445L77.2957 38.9993C77.056 39.2831 76.877 39.6036 76.7577 39.9409L77.7004 40.2745ZM78.0597 39.6445C78.4894 39.1356 78.8821 38.5994 79.2359 38.0404L78.3909 37.5056C78.0614 38.0262 77.6957 38.5256 77.2957 38.9993L78.0597 39.6445ZM80.8833 34.4306C81.2633 33.1666 81.4732 31.8476 81.4977 30.5098L80.4979 30.4915C80.4751 31.7368 80.2797 32.9651 79.9256 34.1426L80.8833 34.4306ZM81.0245 26.5689C80.858 25.9354 80.6467 25.306 80.3893 24.6844L79.4654 25.0671C79.7055 25.6468 79.9023 26.2333 80.0574 26.8231L81.0245 26.5689Z" fill="white"/>
</svg>
