<svg width="40" height="40" viewBox="0 0 40 40" fill="none" xmlns="http://www.w3.org/2000/svg">
<path fill-rule="evenodd" clip-rule="evenodd" d="M32.3732 7.62684C35.3425 7.3704 38.2624 9.03787 39.4636 11.9379C40.6648 14.8379 39.7792 18.0817 37.4982 20C39.7793 21.9183 40.6649 25.1621 39.4636 28.0621C38.2624 30.9622 35.3425 32.6297 32.3731 32.3732C32.6296 35.3425 30.9621 38.2624 28.062 39.4636C25.162 40.6649 21.9182 39.7793 20 37.4983C18.0817 39.7792 14.8379 40.6648 11.9379 39.4635C9.0379 38.2623 7.37043 35.3424 7.62689 32.3731C4.65756 32.6296 1.7377 30.9621 0.536472 28.0621C-0.664752 25.1621 0.220817 21.9183 2.50178 20C0.220753 18.0817 -0.664852 14.8379 0.536387 11.9379C1.73762 9.03785 4.65754 7.37036 7.6269 7.62686C7.37043 4.65751 9.03791 1.73763 11.9379 0.536398C14.838 -0.664839 18.0818 0.220761 20 2.50178C21.9183 0.220753 25.1621 -0.664852 28.0622 0.536388C30.9622 1.73762 32.6297 4.6575 32.3732 7.62684Z" fill="black"/>
</svg>
